<svg aria-hidden="true" style="width:0;height:0;position:absolute;overflow:hidden" xmlns="http://www.w3.org/2000/svg"><defs><symbol id="icon-logo" viewBox="0 0 30 32"><path d="M15.226 17.082c1.415-3.784-1.515-5.855-3.457-7.217-.371-.278-.742-.538-1.044-.776a3.627 3.627 0 0 1-1.133-1.674l-.007-.026a3.48 3.48 0 0 1-.163-1.067c0-.345.049-.679.141-.995l-.006.025a.39.39 0 0 0-.115-.395.402.402 0 0 0-.412-.08l.003-.001c-.69.273-1.285.63-1.811 1.067l.011-.009a4.272 4.272 0 0 0-1.215 1.452l-.011.024a4.115 4.115 0 0 0-.442 1.857v.001a4.977 4.977 0 0 0-.952.978l-.01.014a3.579 3.579 0 0 0-.709 2.332v-.008a4.607 4.607 0 0 0-1.276 1.945l-.009.032a4.55 4.55 0 0 0-.124 2.376l-.005-.03a1.247 1.247 0 0 0-.609 1.065c0 .12.017.237.05.347l-.002-.009c.075.262.235.493.456.657s.49.252.767.25h.026v2.151c0 .219.089.428.245.583s.369.241.591.241h.65l1.058 9.04c.022.201.118.387.271.522s.351.21.556.21h4.404c.206 0 .404-.075.557-.21s.251-.32.275-.522l1.058-9.04h.65a.844.844 0 0 0 .591-.241.817.817 0 0 0 .245-.582v-2.152H14.347c.348 0 .663-.139.894-.365a1.24 1.24 0 0 0 .371-.883v-.014c0-.343-.142-.654-.371-.875l-.011.003zm-9.531-6.866c.535 1.98 2.599 2.759 4.482 3.455a.41.41 0 0 0 .493-.052.4.4 0 0 0 .124-.289l-.001-.028v.001a.393.393 0 0 0-.166-.295l-.001-.001a.402.402 0 0 0-.16-.068h-.003c-2.027-.758-3.939-1.464-4.084-3.488a3.32 3.32 0 0 1 .318-1.639l-.009.02a3.417 3.417 0 0 1 1.038-1.277l.009-.006c.283-.231.586-.438.906-.615a4.491 4.491 0 0 0 .002.779l-.001-.017c.047.615.216 1.181.484 1.686l-.011-.023c.281.531.648.98 1.087 1.343l.007.006c.308.26.691.527 1.114.812.977.692 2.087 1.465 2.792 2.511.441.619.704 1.39.704 2.223 0 .538-.11 1.051-.309 1.517l.01-.025h-1.641c-3.382 0-7.27-.922-8.038-3.506a2.94 2.94 0 0 1 .009-1.646l-.005.021a2.968 2.968 0 0 1 .87-1.377l.003-.003-.019-.018zM8.74 22.693l1.24 1.222-1.241 1.222-1.24-1.23 1.24-1.215zm2.844 3.21-1.025 1.01-1.24-1.222 1.241-1.219 1.076 1.057-.052.374zM8.74 28.706l-1.241-1.222 1.241-1.222 1.24 1.222-1.241 1.222zm-.568-3.008L6.931 26.92l-1.032-1.018-.044-.366 1.077-1.057 1.24 1.219zM6.36 27.484l-.249.245-.063-.556.312.311zm-.13 1.251.702-.692 1.363 1.354a.763.763 0 0 0 .026.081H6.316l-.086-.743zm4.322-.691.702.692-.086.732h-2.06l1.444-1.424zm.816-.315-.249-.245.316-.311-.067.556zm.372-3.199-.62-.622.787-.776-.167 1.398zm-1.192-1.178-1.177-1.156h2.354l-1.177 1.157zm-3.62 0-1.177-1.156h2.354l-1.177 1.157zm4.01 7.817h-4.4a.03.03 0 0 1-.026-.025l-.104-.879h4.664l-.1.879a.03.03 0 0 1-.029.026h-.003zm3.405-12.751h-1.292a.406.406 0 0 0-.311.102.392.392 0 0 0 0 .59.403.403 0 0 0 .271.103l.042-.002h-.002.46v2.152a.032.032 0 0 1-.01.019.032.032 0 0 1-.019.007H3.986a.032.032 0 0 1-.019-.007.032.032 0 0 1-.01-.019v-2.152h7.355a.408.408 0 0 0 .261-.129.394.394 0 0 0 0-.537.402.402 0 0 0-.259-.128h-8.17a.467.467 0 0 1-.353-.117.453.453 0 0 1-.15-.335v-.001c0-.133.058-.252.149-.334a.462.462 0 0 1 .31-.119l.044.002h-.002.843a.408.408 0 0 0 .261-.129.394.394 0 0 0 0-.537.408.408 0 0 0-.259-.129h-.744a3.919 3.919 0 0 1 .056-1.707l-.006.027c.15-.579.412-1.083.764-1.511l-.005.007c.26.798.928 1.889 2.599 2.756 1.57.808 3.65 1.222 6.178 1.222h1.485a.462.462 0 0 1 .352.117.453.453 0 0 1 .15.335v.001a.449.449 0 0 1-.149.334.462.462 0 0 1-.31.119l-.044-.002H14.341z"/><path d="m16.964 29.152-.293.448.006.004.287-.453zm3.149.152.535-.012-.014-.62-.611.104.09.528zm.037 1.647.136.518.409-.108-.01-.422-.535.012zm-4.133.079.121-.522-.003-.001-.117.523zm-2.039-.911.347-.409h-.001l-.346.409zm-.738-1.673.536.003v-.003h-.536zm.256-1.172-.48-.236v.001l.48.235zm1.642-1.402.19.501.002-.001-.192-.5zm5.263-.136.534.041.035-.452-.44-.109-.129.52zm-.131 1.679-.099.526.587.111.046-.596-.534-.042zm-1.428-.687c-.804 0-1.48.086-1.973.303a1.616 1.616 0 0 0-.651.489 1.253 1.253 0 0 0-.255.76v.015-.001h1.071v-.013c0-.043.014-.083.038-.115a.57.57 0 0 1 .228-.156c.288-.127.783-.212 1.542-.212v-1.072zm-2.879 1.566c0 .551.247 1.006.709 1.307l.585-.897a.433.433 0 0 1-.223-.409h-1.071zm.714 1.31c.438.277 1.015.381 1.663.381v-1.071c-.559 0-.899-.095-1.089-.215l-.574.905zm1.663.381c.635 0 1.256-.051 1.863-.154l-.179-1.056c-.5.088-1.077.139-1.665.139h-.02.001v1.071zm1.238-.67.036 1.648 1.071-.024-.037-1.647-1.071.024zm.435 1.118a7.964 7.964 0 0 1-2.029.244v1.071c.821 0 1.589-.092 2.302-.279l-.273-1.036zm-2.029.244c-.757 0-1.369-.06-1.846-.169l-.241 1.044c.582.134 1.281.197 2.087.197v-1.071zm-1.85-.17c-.511-.114-.881-.236-1.127-.356l-.47.962c.353.172.814.316 1.363.439l.234-1.046zm-1.126-.356a3.264 3.264 0 0 1-.688-.444l.005.004-.693.817c.263.222.561.417.881.574l.026.011.47-.962zm-.685-.441c-.364-.308-.55-.709-.547-1.262l-1.071-.005c-.004.842.301 1.556.927 2.085l.692-.818zm-.547-1.264c0-.36.07-.669.202-.936l-.962-.471c-.211.43-.311.902-.311 1.407h1.071zm.201-.936c.243-.495.673-.88 1.351-1.137l-.38-1.002c-.884.336-1.549.886-1.933 1.666l.961.473zm1.354-1.138c.712-.273 1.507-.414 2.392-.414v-1.071c-.999 0-1.926.159-2.776.485l.384 1zm2.392-.414c.901 0 1.751.1 2.549.298l.258-1.04c-.89-.221-1.826-.33-2.807-.33v1.071zm2.144-.263-.13 1.679 1.068.084.131-1.679-1.068-.083zm.503 1.194a8.343 8.343 0 0 0-1.528-.161v1.071c.377 0 .818.046 1.328.142l.199-1.053zm5.226.855-.003.536.544.003-.005-.544-.536.005zm-.23-.695-.364.393.005.004.359-.397zm-1.334.053.371.386.004-.004-.375-.383zm-.324.632-.529-.087-.101.619.627.003.003-.536zm3.938 2.856.324.427.192-.146.018-.241-.534-.039zm-1.156.429-.115-.523h-.003l.118.523zm-4.017-.146-.182.504.004.001.178-.505zm-.915-.487-.332.42.003.002.003.002.326-.425zm-.612-.769-.48.237.001.002.479-.24zm.627-3.248zm4.896-.581.214-.49-.005-.002-.209.493zm1.23 1.13-.482.234.001.003.48-.237zm.209.937.534.038.001-.019v-.02h-.536zm-.063.863-.002.536.501.002.036-.499-.534-.039zm-4.242-.021.003-.536-.699-.003.178.676.518-.137zm.607.748-.263.466.002.001.261-.468zm3.253-.183v-.536h-.107l-.098.041.206.495zm.282 0 .534.039.043-.575h-.577v.536zm-1.613-1.523c-.004-.387-.094-.803-.406-1.087l-.72.794c-.006-.005.006.001.021.047a.87.87 0 0 1 .033.257l1.071-.011zm-.402-1.082c-.281-.261-.65-.347-1.013-.347v1.071c.208 0 .272.05.284.061l.729-.785zm-1.013-.348c-.399 0-.77.125-1.06.409l.75.766c.059-.058.144-.103.31-.103v-1.072zm-1.056.406a1.63 1.63 0 0 0-.481.923l-.001.009 1.057.174a.568.568 0 0 1 .166-.334l-.742-.773zm.044 1.555 1.889.01.006-1.071-1.889-.011-.006 1.071zm3.618 1.893c-.118.089-.404.213-.948.333l.23 1.046c.565-.125 1.05-.287 1.365-.525l-.647-.854zm-.951.334a6.544 6.544 0 0 1-1.496.175h-.002v1.071c.566 0 1.145-.068 1.735-.202l-.236-1.045zm-1.498.175c-.505 0-.921-.024-1.252-.068l-.143 1.062c.394.053.861.078 1.395.078v-1.071zm-1.252-.069a4.79 4.79 0 0 1-1.004-.247l.034.011-.357 1.01a5.96 5.96 0 0 0 1.184.288l.143-1.062zm-.966-.234a2.82 2.82 0 0 1-.772-.408l-.652.85c.305.234.661.42 1.058.565l.365-1.007zm-.766-.403a1.726 1.726 0 0 1-.461-.578l-.004-.01-.958.479c.186.377.442.694.753.945l.005.004.666-.84zm-.464-.586c-.113-.228-.18-.521-.18-.897h-1.071c0 .502.09.965.29 1.372l.96-.475zm-.18-.898c0-.377.068-.71.196-1.006l-.983-.426a3.57 3.57 0 0 0-.285 1.432h1.071zm.196-1.005c.135-.311.3-.542.487-.707l-.713-.8a3.036 3.036 0 0 0-.757 1.082l.983.426zm.488-.708c.576-.513 1.454-.811 2.719-.811v-1.071c-1.419 0-2.591.333-3.432 1.083l.713.799zm2.719-.811a4.08 4.08 0 0 1 1.611.323l.418-.986a5.069 5.069 0 0 0-2.01-.409h-.021.001v1.071zm1.606.321c.474.207.78.5.961.873l.963-.468c-.307-.632-.82-1.092-1.497-1.387l-.428.982zm.963.877c.1.202.154.432.154.699h1.071c0-.417-.086-.811-.265-1.174l-.96.474zm.156.659-.063.863 1.068.078.063-.863-1.068-.077zm.474.367-4.242-.021-.005 1.071 4.242.021.005-1.071zm-4.763.651c.126.475.432.834.862 1.078l.527-.933c-.212-.12-.31-.258-.352-.418l-1.036.274zm.863 1.079c.434.243.978.34 1.585.34v-1.071c-.509 0-.848-.084-1.062-.204l-.523.935zm1.585.34c.651 0 1.367-.176 2.136-.496l-.412-.989c-.688.287-1.26.414-1.724.414v1.071zm1.93-.455h.283v-1.071h-.282v1.071zm-.251-.576-.1 1.329 1.068.08.099-1.329-1.068-.08z"/></symbol><symbol id="icon-menu-mobile" viewBox="0 0 32 32"><path d="M6.4 11.734V9.6h19.2v2.134H6.4zm0 5.332h19.2v-2.133H6.4v2.133zm0 5.334h19.2v-2.134H6.4V22.4z"/></symbol><symbol id="close" viewBox="0 0 32 32"><path d="M22.4 10.782 21.218 9.6l-4.685 4.685L11.848 9.6l-1.182 1.182 4.685 4.685-4.685 4.685 1.182 1.182 4.685-4.685 4.685 4.685 1.182-1.182-4.685-4.685 4.685-4.685z"/></symbol><symbol id="icon-arrow" viewBox="0 0 82 32"><path d="M81.414 17.414c.362-.362.586-.862.586-1.414s-.224-1.052-.586-1.414L68.686 1.858a2 2 0 1 0-2.829 2.827l.001.001L77.172 16 65.858 27.314a2 2 0 0 0 2.829 2.827l-.001.001 12.728-12.728zM0 18h80v-4H0v4z"/></symbol><symbol id="icon-cow" viewBox="0 0 32 32"><path d="M6.168.192c-.261.225-1.006 1.781-1.274 2.63-.319 1.052-.427 1.841-.384 2.931.058 1.556.449 2.735 1.31 3.968.224.323.405.601.405.624 0 .015-.138.03-.311.03-.746 0-2.143.248-3.214.571-1.701.511-2.7 1.405-2.7 2.405 0 .353.319.954.659 1.262.659.594 2.1 1.157 3.649 1.428.536.098 2.128.263 2.483.271.065 0 .087.346.087 1.48 0 .977.036 1.736.109 2.202.261 1.668 1.071 3.434 2.143 4.682l.369.428-.246.398c-.362.564-.499.992-.543 1.631-.109 1.533.847 2.893 2.693 3.848 3.518 1.826 8.985 1.112 11.033-1.443.999-1.247 1.115-2.675.326-3.968l-.246-.398.442-.534c.825-.992 1.361-1.984 1.767-3.239.34-1.067.471-2.097.471-3.727 0-.744.022-1.36.058-1.36.333-.008 1.933-.18 2.44-.271 1.557-.271 2.968-.827 3.649-1.428.34-.308.659-.909.659-1.262 0-1.112-1.129-2.014-3.229-2.555-.688-.18-1.984-.398-2.613-.436l-.297-.023.326-.451c.405-.549.912-1.616 1.108-2.315.55-2.021.21-4.374-.97-6.62-.492-.932-.833-1.15-1.231-.782-.152.143-.217.338-.362 1.045-.449 2.247-1.281 4.028-2.498 5.343l-.536.586H10.247l-.478-.518C8.582 5.317 7.72 3.469 7.271 1.214 7.126.508 7.061.312 6.909.169c-.239-.218-.471-.21-.738.023zm.927 4.457c.384.842.862 1.631 1.426 2.36l.449.579-.471.353a4.73 4.73 0 0 0-1.173 1.368l-.138.248-.348-.473c-1.187-1.638-1.484-3.645-.854-5.726.304-1.007.297-.999.572-.128.13.421.376 1.06.536 1.42zM25.94 3.063c.297.894.413 1.608.413 2.532 0 1.368-.362 2.525-1.122 3.562l-.34.466-.253-.428a4.5 4.5 0 0 0-1.267-1.39c-.195-.128-.347-.255-.347-.271 0-.023.137-.195.311-.383.804-.894 1.665-2.502 2.092-3.885.13-.428.261-.782.282-.782s.13.263.232.579zm-3.699 5.493c.804.338 1.571 1.308 1.694 2.127.065.451.217.736.413.782.087.015.688.068 1.332.113 2.288.15 4.09.639 4.858 1.308.355.316.319.579-.109.902-.854.646-2.7 1.135-4.583 1.217-1.245.053-1.506.09-1.672.263-.123.128-.138.263-.138 1.623 0 1.841-.094 2.901-.326 3.757-.326 1.165-.97 2.405-1.723 3.284l-.311.361-.644-.383a7.965 7.965 0 0 0-2.389-.969c-2.744-.654-5.777-.256-7.819 1.029l-.471.301-.297-.353c-.405-.473-1.043-1.488-1.296-2.059-.557-1.293-.724-2.345-.724-4.659 0-2.247.116-2.082-1.549-2.172-2.128-.113-3.75-.496-4.771-1.142-.753-.481-.63-.909.42-1.413 1.006-.488 2.389-.781 4.308-.902 1.491-.098 1.528-.12 1.665-.842.203-1.09 1.006-1.991 2.02-2.277.253-.075 1.672-.09 6.016-.083l5.683.015.413.173zm-4.069 15.556c1.774.436 3.099 1.247 3.671 2.254.137.233.195.473.224.842.029.458.007.571-.166.947-.804 1.706-3.757 2.833-6.762 2.578-3.613-.301-5.987-2.315-5.053-4.291.507-1.067 2.223-2.089 4.033-2.39.297-.045.594-.098.652-.113s.71-.015 1.448 0c1.006.023 1.491.068 1.955.173z"/><path d="M10.99 12.321c-.449.15-.753.346-1.158.751-.355.338-.384.736-.087.977.275.225.536.195.869-.098.42-.368.746-.518 1.151-.518.405-.008.717.135 1.151.518.333.293.594.323.869.098.145-.12.188-.218.188-.443 0-.233-.051-.338-.304-.594-.717-.721-1.781-.999-2.679-.691zm8.442-.008c-.463.173-1.057.564-1.296.857-.232.286-.239.609 0 .849.239.256.529.241.876-.045.854-.706 1.491-.729 2.281-.075.203.173.434.308.507.308.355 0 .644-.316.644-.691 0-.24-.601-.797-1.144-1.06-.601-.293-1.318-.346-1.868-.143zM12.04 26.224c-.21.203-.282.496-.174.729.08.188.203.263.702.398.224.06.319.135.398.323.101.248.109.248.666.27l.557.023v-.21c-.007-.301-.174-.736-.391-1.037-.253-.346-.695-.571-1.195-.616-.34-.03-.427-.015-.565.12zm6.914-.053c-.362.098-.883.586-1.028.969-.065.173-.13.481-.137.684-.015.323.014.398.188.556.427.376.992.083.992-.518 0-.293.217-.496.601-.571.405-.075.55-.24.557-.624 0-.504-.449-.699-1.173-.496z"/></symbol><symbol id="icon-weight" viewBox="0 0 32 32"><path d="M14.177.547c-3.974.589-7.247 2.796-8.451 5.685-.384.913-.488 1.473-.488 2.573.007.812.037 1.114.162 1.553.259.863.443 1.301.827 1.919l.355.575-.399.489c-3.154 3.924-3.502 9.444-.872 13.793.982 1.632 2.585 3.234 4.152 4.169l.465.273 12.743-.108.303-.165c1.056-.597 2.549-1.926 3.383-3.004a12.61 12.61 0 0 0 2.423-5.621c.118-.74.118-2.932-.007-3.63-.377-2.149-1.182-3.989-2.453-5.621-.244-.309-.436-.568-.436-.589 0-.014.133-.237.288-.489a7.762 7.762 0 0 0 .864-1.962c.199-.719.199-2.516 0-3.234-.709-2.552-2.837-4.679-5.843-5.851C20.351.971 18.91.619 17.98.504c-.864-.101-2.999-.079-3.804.043zm4.499 1.171c3.945.769 6.833 3.184 7.365 6.16.118.668.044 1.804-.155 2.437-.199.618-.569 1.344-1.005 1.962-.177.252-.325.539-.325.633s.155.338.377.582c1.847 2.048 2.822 4.614 2.822 7.389-.007 3.155-1.219 5.922-3.553 8.093-.399.374-.968.841-1.271 1.042l-.554.374-12.211.05-.473-.302c-1.714-1.114-3.258-2.954-4.115-4.909-1.079-2.472-1.189-5.34-.31-7.913.465-1.337 1.086-2.429 2.031-3.579.384-.46.561-.733.561-.863 0-.108-.192-.46-.443-.827-.886-1.287-1.248-2.717-1.034-4.068.222-1.366.842-2.487 1.987-3.601 1.492-1.445 3.575-2.401 6.02-2.76 1.012-.151 3.25-.093 4.285.101z"/><path d="M14.51 2.983c-3.029.496-5.4 2.178-6.176 4.384-.177.496-.207.69-.207 1.402s.03.906.207 1.402c.111.316.318.755.458.978.384.618.554.64 1.315.18a11.949 11.949 0 0 1 3.804-1.488c.916-.187 2.674-.259 3.671-.144 1.559.18 3.25.74 4.602 1.538.384.223.776.41.872.41.561 0 1.278-1.617 1.278-2.875 0-2.796-2.674-5.189-6.464-5.786-.805-.129-2.585-.129-3.361 0zm3.656 1.15c1.271.273 2.438.791 3.317 1.473 1.182.913 1.817 2.185 1.714 3.414-.037.489-.222 1.15-.332 1.222-.029.014-.443-.158-.916-.388a14.721 14.721 0 0 0-3.228-1.1c-.687-.144-.975-.165-2.512-.158-1.514 0-1.832.022-2.489.158a13.254 13.254 0 0 0-3.117 1.064c-1.101.525-1.042.532-1.241-.115-.258-.841-.096-1.955.406-2.796.266-.446.997-1.186 1.529-1.553 1.012-.697 1.899-1.013 3.804-1.358.391-.072 2.563.029 3.066.137zm-1.204 9.272c-.207.259-.207.503.007.712.14.137.281.173.79.208.99.072 1.935.359 2.785.848.606.359 1.529 1.229 1.943 1.854.613.898 1.034 2.185 1.034 3.134 0 .331.029.431.185.575.236.237.547.237.776 0 .163-.165.17-.208.125-.913-.207-3.479-3.184-6.383-6.744-6.577l-.739-.043-.163.201z"/></symbol><symbol id="icon-ice-crema" viewBox="0 0 32 32"><path d="M16.108.107c.08.214.241 1.252.241 1.573 0 .797-.295 1.54-.837 2.122-.449.482-.897.75-1.975 1.185-1.198.489-1.694.783-2.256 1.339-.569.569-.904 1.192-1.024 1.921-.134.797 0 1.359.408 1.68l.208.161-.328.208c-.663.435-1.868 1.459-2.075 1.774-.402.603-.361 1.165.094 1.392l.214.107-.241.228c-.361.341-.435.576-.382 1.192.033.408.02.629-.074.964-.114.435-.114.442.033.75.147.301.562.683.937.843.181.08.187.107.228.723.02.355.053 1.486.08 2.517.02 1.031.067 1.975.107 2.089a.79.79 0 0 0 .274.361c.388.268.656.556.83.89.194.382.408 1.319 1.058 4.559l.455 2.276.281.268c.536.529 1.56.77 3.247.77 1.694 0 2.705-.234 3.24-.763l.288-.274.415-2.109c.917-4.613.997-4.867 1.714-5.436.221-.181.435-.402.475-.502.047-.114.094-.991.127-2.316.027-1.178.067-2.343.094-2.591l.04-.449.435-.328c.549-.422.763-.803.763-1.393-.007-.696-.462-1.459-1.292-2.142l-.395-.321.194-.274c.81-1.118.301-2.664-1.205-3.695l-.455-.315.167-.174c.743-.797.864-3.173.241-4.827-.375-.984-1.232-2.055-2.283-2.845C17.659.857 16.239 0 16.112 0c-.027 0-.027.047-.007.107zm1.928 2.336c.355.348.783.823.951 1.064.997 1.392 1.252 3.14.649 4.425-.241.522-.964 1.299-1.633 1.761-1.024.71-3.327 1.901-4.934 2.557-2.584 1.051-4.084 1.252-4.258.562-.067-.261.127-.469.951-1.018.743-.509 4.077-2.986 4.137-3.086.02-.027-.321.127-.75.341-1.453.736-2.142.596-2.109-.428.02-.743.556-1.587 1.299-2.069.187-.12.77-.388 1.305-.603 1.761-.71 2.296-1.071 2.892-1.962.355-.529.743-1.506.77-1.921.007-.147.034-.261.054-.261s.321.288.676.636zm1.828 7.606c.489.274.997.743 1.218 1.111.388.663.187 1.325-.649 2.169-.91.924-2.464 1.808-4.171 2.37-1.573.515-3.079.756-5.235.83l-1.339.047.87.054c1.125.074 3.3.007 4.144-.127 2.243-.355 4.151-1.064 5.516-2.042.308-.221.629-.402.716-.402.221 0 1.185.924 1.379 1.312.107.221.134.382.114.596-.1.89-1.185 1.366-3.802 1.68-3.2.382-7.384.007-9.172-.817-.844-.388-.984-.609-.77-1.198.067-.187.08-.408.054-.723-.033-.415-.027-.469.12-.623.335-.361.897-.569 2.959-1.091a28.11 28.11 0 0 0 2.176-.656c1.138-.415 3.274-1.493 4.264-2.156.93-.616 1.064-.643 1.607-.335zm-8.89 8.194c1.406.408 2.651.529 4.967.482 1.741-.034 2.812-.141 4.358-.415.315-.053.589-.1.623-.1.074 0 .053 2.571-.027 3.247-.087.716-.281 1.272-.489 1.406-.214.141-1.285.288-2.718.368-2.939.161-5.958 0-6.895-.375-.509-.207-.562-.475-.569-2.959 0-1.654.013-1.881.1-1.848.053.02.348.107.649.194zm1.586 5.69c.482.06 1.004.121 1.165.141l.288.034-.254.281c-.328.355-.83 1.064-1.011 1.426-.207.415-.274.442-.582.274l-.261-.147-.147-.91c-.08-.495-.167-.971-.187-1.051-.06-.174-.12-.174.991-.047zm7.137-.074c0 .013-.033.187-.067.382-.04.201-.208 1.292-.375 2.43-.341 2.377-.569 3.495-.777 3.869-.288.502-.977.797-2.095.89-.435.034-1.747-.053-1.821-.12-.053-.06 1.098-1.486 1.279-1.58.167-.094.214-.08.783.214.663.348.997.402.997.181s-.174-.435-.602-.73c-.395-.281-.536-.442-.536-.629 0-.053.194-.355.428-.669s.576-.817.75-1.118l.328-.542.301.04c.609.087.77.08.75-.053-.013-.067-.127-.261-.254-.422-.127-.167-.228-.335-.228-.368 0-.127.623-1.299.823-1.546.174-.214.315-.321.315-.228zm-4.184.536c.335.221 1.593 1.312 1.674 1.446.034.06-1.259 2.082-1.513 2.37-.027.034-.167-.033-.308-.141a22.133 22.133 0 0 0-1.165-.803l-.904-.596.542-.917c.964-1.613.944-1.587 1.151-1.587.107 0 .341.1.522.228zm2.537.241c-.234.288-.428.469-.509.469-.174 0-.455-.154-.93-.502l-.395-.288.79-.047c.428-.02.844-.047.917-.06.536-.087.536-.08.127.428zm-5.061 3.22c.616.241 1.66.81 1.962 1.064.214.174.214.187.127.402a6.675 6.675 0 0 1-.415.716c-.174.268-.375.602-.449.743-.214.415-.281.449-.723.328-.475-.141-.73-.382-.864-.817-.181-.609-.469-2.33-.435-2.598.013-.1.295-.04.797.161z"/><symbol id="icon-group-svg-mobile1" viewBox="0 0 81 32"><path d="M32.76 29.617c0 .982-.739 1.778-1.65 1.778s-1.65-.796-1.65-1.778.739-1.778 1.65-1.778 1.65.796 1.65 1.778zM36.336 27.246c0 .982-.739 1.778-1.65 1.778s-1.65-.796-1.65-1.778.739-1.778 1.65-1.778 1.65.796 1.65 1.778zM40.46 24.578c0 .982-.739 1.778-1.65 1.778s-1.65-.796-1.65-1.778.739-1.778 1.65-1.778 1.65.796 1.65 1.778zM44.311 22.207c0 .982-.739 1.778-1.65 1.778s-1.65-.796-1.65-1.778.739-1.778 1.65-1.778 1.65.796 1.65 1.778zM42.11 28.431c0 .982-.739 1.778-1.65 1.778s-1.65-.796-1.65-1.778.739-1.778 1.65-1.778 1.65.796 1.65 1.778zM45.686 26.06c0 .982-.739 1.778-1.65 1.778s-1.65-.796-1.65-1.778.739-1.778 1.65-1.778 1.65.796 1.65 1.778zM49.81 23.393c0 .982-.739 1.778-1.65 1.778s-1.65-.796-1.65-1.778.739-1.778 1.65-1.778 1.65.796 1.65 1.778zM53.662 21.022c0 .982-.739 1.778-1.65 1.778s-1.65-.796-1.65-1.778.739-1.778 1.65-1.778 1.65.796 1.65 1.778zM50.087 27.542c0 .982-.739 1.778-1.65 1.778s-1.65-.796-1.65-1.778.739-1.778 1.65-1.778 1.65.796 1.65 1.778zM53.663 25.17c0 .982-.739 1.778-1.65 1.778s-1.65-.796-1.65-1.778.739-1.778 1.65-1.778 1.65.796 1.65 1.778zM57.788 22.503c0 .982-.739 1.778-1.65 1.778s-1.65-.796-1.65-1.778.739-1.778 1.65-1.778 1.65.796 1.65 1.778zM61.637 20.132c0 .982-.739 1.778-1.65 1.778s-1.65-.796-1.65-1.778.739-1.778 1.65-1.778 1.65.796 1.65 1.778zM57.786 26.356c0 .982-.739 1.778-1.65 1.778s-1.65-.796-1.65-1.778.739-1.778 1.65-1.778 1.65.796 1.65 1.778zM61.361 23.985c0 .982-.739 1.778-1.65 1.778s-1.65-.796-1.65-1.778.739-1.778 1.65-1.778 1.65.796 1.65 1.778zM65.487 21.318c0 .982-.739 1.778-1.65 1.778s-1.65-.796-1.65-1.778.739-1.778 1.65-1.778 1.65.796 1.65 1.778zM69.337 18.946c0 .982-.739 1.778-1.65 1.778s-1.65-.796-1.65-1.778.739-1.778 1.65-1.778 1.65.796 1.65 1.778zM60.263 29.617c0 .982-.739 1.778-1.65 1.778s-1.65-.796-1.65-1.778.739-1.778 1.65-1.778 1.65.796 1.65 1.778zM63.838 27.246c0 .982-.739 1.778-1.65 1.778s-1.65-.796-1.65-1.778.739-1.778 1.65-1.778 1.65.796 1.65 1.778zM68.788 29.913c0 .982-.739 1.778-1.65 1.778s-1.65-.796-1.65-1.778.739-1.778 1.65-1.778 1.65.796 1.65 1.778zM67.964 24.578c0 .982-.739 1.778-1.65 1.778s-1.65-.796-1.65-1.778.739-1.778 1.65-1.778 1.65.796 1.65 1.778zM72.914 27.246c0 .982-.739 1.778-1.65 1.778s-1.65-.796-1.65-1.778.739-1.778 1.65-1.778 1.65.796 1.65 1.778zM76.764 29.913c0 .982-.739 1.778-1.65 1.778s-1.65-.796-1.65-1.778.739-1.778 1.65-1.778 1.65.796 1.65 1.778zM71.814 22.207c0 .982-.739 1.778-1.65 1.778s-1.65-.796-1.65-1.778.739-1.778 1.65-1.778 1.65.796 1.65 1.778zM76.764 24.874c0 .982-.739 1.778-1.65 1.778s-1.65-.796-1.65-1.778.739-1.778 1.65-1.778 1.65.796 1.65 1.778zM80.615 27.542c0 .982-.739 1.778-1.65 1.778s-1.65-.796-1.65-1.778.739-1.778 1.65-1.778 1.65.796 1.65 1.778zM15.986 10.055c0 .982-.739 1.778-1.65 1.778s-1.65-.796-1.65-1.778.739-1.778 1.65-1.778 1.65.796 1.65 1.778zM19.56 7.684c0 .982-.739 1.778-1.65 1.778s-1.65-.796-1.65-1.778.739-1.778 1.65-1.778 1.65.796 1.65 1.778zM23.687 5.017c0 .982-.739 1.778-1.65 1.778s-1.65-.796-1.65-1.778.739-1.778 1.65-1.778 1.65.796 1.65 1.778zM27.535 2.646c0 .982-.739 1.778-1.65 1.778s-1.65-.796-1.65-1.778.739-1.778 1.65-1.778 1.65.796 1.65 1.778zM9.109 9.758c0 .982-.739 1.778-1.65 1.778s-1.65-.796-1.65-1.778.739-1.778 1.65-1.778 1.65.796 1.65 1.778zM12.684 7.387c0 .982-.739 1.778-1.65 1.778s-1.65-.796-1.65-1.778.739-1.778 1.65-1.778 1.65.796 1.65 1.778zM16.809 4.72c0 .982-.739 1.778-1.65 1.778s-1.65-.796-1.65-1.778.739-1.778 1.65-1.778 1.65.796 1.65 1.778zM20.659 2.349c0 .982-.739 1.778-1.65 1.778s-1.65-.796-1.65-1.778.739-1.778 1.65-1.778 1.65.796 1.65 1.778zM24.51 29.617c0 .982-.739 1.778-1.65 1.778s-1.65-.796-1.65-1.778.739-1.778 1.65-1.778 1.65.796 1.65 1.778zM28.084 27.246c0 .982-.739 1.778-1.65 1.778s-1.65-.796-1.65-1.778.739-1.778 1.65-1.778 1.65.796 1.65 1.778zM32.21 24.578c0 .982-.739 1.778-1.65 1.778s-1.65-.796-1.65-1.778.739-1.778 1.65-1.778 1.65.796 1.65 1.778zM36.06 22.207c0 .982-.739 1.778-1.65 1.778s-1.65-.796-1.65-1.778.739-1.778 1.65-1.778 1.65.796 1.65 1.778zM20.11 27.838c0 .982-.739 1.778-1.65 1.778s-1.65-.796-1.65-1.778.739-1.778 1.65-1.778 1.65.796 1.65 1.778zM23.684 25.467c0 .982-.739 1.778-1.65 1.778s-1.65-.796-1.65-1.778.739-1.778 1.65-1.778 1.65.796 1.65 1.778zM27.81 22.799c0 .982-.739 1.778-1.65 1.778s-1.65-.796-1.65-1.778.739-1.778 1.65-1.778 1.65.796 1.65 1.778zM31.66 20.428c0 .982-.739 1.778-1.65 1.778s-1.65-.796-1.65-1.778.739-1.778 1.65-1.778 1.65.796 1.65 1.778zM21.759 21.614c0 .982-.739 1.778-1.65 1.778s-1.65-.796-1.65-1.778.739-1.778 1.65-1.778 1.65.796 1.65 1.778zM25.334 19.243c0 .982-.739 1.778-1.65 1.778s-1.65-.796-1.65-1.778.739-1.778 1.65-1.778 1.65.796 1.65 1.778zM29.461 16.575c0 .982-.739 1.778-1.65 1.778s-1.65-.796-1.65-1.778.739-1.778 1.65-1.778 1.65.796 1.65 1.778zM33.31 14.204c0 .982-.739 1.778-1.65 1.778s-1.65-.796-1.65-1.778.739-1.778 1.65-1.778 1.65.796 1.65 1.778zM21.759 11.24c0 .982-.739 1.778-1.65 1.778s-1.65-.796-1.65-1.778.739-1.778 1.65-1.778 1.65.796 1.65 1.778zM25.334 8.869c0 .982-.739 1.778-1.65 1.778s-1.65-.796-1.65-1.778.739-1.778 1.65-1.778 1.65.796 1.65 1.778zM29.461 6.202c0 .982-.739 1.778-1.65 1.778s-1.65-.796-1.65-1.778.739-1.778 1.65-1.778 1.65.796 1.65 1.778zM33.31 3.831c0 .982-.739 1.778-1.65 1.778s-1.65-.796-1.65-1.778.739-1.778 1.65-1.778 1.65.796 1.65 1.778zM20.935 16.872c0 .982-.739 1.778-1.65 1.778s-1.65-.796-1.65-1.778.739-1.778 1.65-1.778 1.65.796 1.65 1.778zM24.51 14.501c0 .982-.739 1.778-1.65 1.778s-1.65-.796-1.65-1.778.739-1.778 1.65-1.778 1.65.796 1.65 1.778zM28.635 11.833c0 .982-.739 1.778-1.65 1.778s-1.65-.796-1.65-1.778.739-1.778 1.65-1.778 1.65.796 1.65 1.778zM32.485 9.462c0 .982-.739 1.778-1.65 1.778s-1.65-.796-1.65-1.778.739-1.778 1.65-1.778 1.65.796 1.65 1.778zM3.608 8.276c0 .982-.739 1.778-1.65 1.778S.308 9.258.308 8.276s.739-1.778 1.65-1.778 1.65.796 1.65 1.778zM7.184 5.905c0 .982-.739 1.778-1.65 1.778s-1.65-.796-1.65-1.778.739-1.778 1.65-1.778 1.65.796 1.65 1.778zM11.31 3.238c0 .982-.739 1.778-1.65 1.778S8.01 4.22 8.01 3.238 8.749 1.46 9.66 1.46s1.65.796 1.65 1.778z"/><path d="M9.385 10.055c.911 0 1.65-.796 1.65-1.778s-.738-1.778-1.65-1.778-1.65.796-1.65 1.778.738 1.778 1.65 1.778z"/></symbol><symbol id="icon-group-svg-mobile2" viewBox="0 0 104 32"><path d="M85.595 17.786c.214 1.507-.745 2.916-2.143 3.147s-2.705-.803-2.92-2.31c-.214-1.507.745-2.916 2.143-3.147s2.705.803 2.92 2.31zM90.564 13.241c.214 1.507-.745 2.916-2.143 3.147s-2.705-.803-2.92-2.31c-.214-1.507.745-2.916 2.143-3.147s2.705.803 2.92 2.31zM96.31 8.104c.214 1.507-.745 2.916-2.143 3.147s-2.705-.803-2.92-2.31c-.214-1.507.745-2.916 2.143-3.147s2.705.803 2.92 2.31zM101.7 3.49c.214 1.507-.745 2.916-2.143 3.147s-2.705-.803-2.92-2.31c-.214-1.507.745-2.916 2.143-3.147s2.705.803 2.92 2.31zM5.12 16.519c0 1.466-1.146 2.654-2.56 2.654S0 17.985 0 16.519s1.146-2.654 2.56-2.654 2.56 1.188 2.56 2.654zM10.664 12.98c0 1.466-1.146 2.654-2.56 2.654s-2.56-1.188-2.56-2.654 1.146-2.654 2.56-2.654 2.56 1.188 2.56 2.654zM17.066 9c0 1.466-1.146 2.654-2.56 2.654s-2.56-1.188-2.56-2.654 1.146-2.654 2.56-2.654 2.56 1.188 2.56 2.654zM23.038 5.461c0 1.466-1.146 2.654-2.56 2.654s-2.56-1.188-2.56-2.654 1.146-2.654 2.56-2.654 2.56 1.188 2.56 2.654zM7.68 23.153c0 1.466-1.146 2.654-2.56 2.654s-2.56-1.188-2.56-2.654 1.146-2.654 2.56-2.654 2.56 1.188 2.56 2.654zM13.226 19.614c0 1.466-1.146 2.654-2.56 2.654s-2.56-1.188-2.56-2.654 1.146-2.654 2.56-2.654 2.56 1.188 2.56 2.654zM19.627 15.634c0 1.466-1.146 2.654-2.56 2.654s-2.56-1.188-2.56-2.654 1.146-2.654 2.56-2.654 2.56 1.188 2.56 2.654zM25.599 12.095c0 1.466-1.146 2.654-2.56 2.654s-2.56-1.188-2.56-2.654 1.146-2.654 2.56-2.654 2.56 1.188 2.56 2.654zM14.078 26.692c0 1.466-1.146 2.654-2.56 2.654s-2.56-1.188-2.56-2.654 1.146-2.654 2.56-2.654 2.56 1.188 2.56 2.654zM19.625 23.153c0 1.466-1.146 2.654-2.56 2.654s-2.56-1.188-2.56-2.654 1.146-2.654 2.56-2.654 2.56 1.188 2.56 2.654zM26.024 19.173c0 1.466-1.146 2.654-2.56 2.654s-2.56-1.188-2.56-2.654 1.146-2.654 2.56-2.654 2.56 1.188 2.56 2.654zM31.996 15.634c0 1.466-1.146 2.654-2.56 2.654s-2.56-1.188-2.56-2.654 1.146-2.654 2.56-2.654 2.56 1.188 2.56 2.654zM21.33 28.904c0 1.466-1.146 2.654-2.56 2.654s-2.56-1.188-2.56-2.654 1.146-2.654 2.56-2.654 2.56 1.188 2.56 2.654zM26.876 25.365c0 1.466-1.146 2.654-2.56 2.654s-2.56-1.188-2.56-2.654 1.146-2.654 2.56-2.654 2.56 1.188 2.56 2.654zM33.278 21.384c0 1.466-1.146 2.654-2.56 2.654s-2.56-1.188-2.56-2.654 1.146-2.654 2.56-2.654 2.56 1.188 2.56 2.654zM39.248 17.846c0 1.466-1.146 2.654-2.56 2.654s-2.56-1.188-2.56-2.654 1.146-2.654 2.56-2.654 2.56 1.188 2.56 2.654z"/><path d="M30.717 29.346c0 1.466-1.146 2.654-2.56 2.654s-2.56-1.188-2.56-2.654 1.146-2.654 2.56-2.654 2.56 1.188 2.56 2.654zM36.264 25.808c0 1.466-1.146 2.654-2.56 2.654s-2.56-1.188-2.56-2.654 1.146-2.654 2.56-2.654 2.56 1.188 2.56 2.654zM42.664 21.827c0 1.466-1.146 2.654-2.56 2.654s-2.56-1.188-2.56-2.654 1.146-2.654 2.56-2.654 2.56 1.188 2.56 2.654zM48.635 18.288c0 1.466-1.146 2.654-2.56 2.654s-2.56-1.188-2.56-2.654 1.146-2.654 2.56-2.654 2.56 1.188 2.56 2.654zM41.811 29.346c0 1.466-1.146 2.654-2.56 2.654s-2.56-1.188-2.56-2.654 1.146-2.654 2.56-2.654 2.56 1.188 2.56 2.654zM47.356 25.807c0 1.466-1.146 2.654-2.56 2.654s-2.56-1.188-2.56-2.654 1.146-2.654 2.56-2.654 2.56 1.188 2.56 2.654zM53.756 21.826c0 1.466-1.146 2.654-2.56 2.654s-2.56-1.188-2.56-2.654 1.146-2.654 2.56-2.654 2.56 1.188 2.56 2.654zM59.729 18.288c0 1.466-1.146 2.654-2.56 2.654s-2.56-1.188-2.56-2.654 1.146-2.654 2.56-2.654 2.56 1.188 2.56 2.654z"/><path d="M51.194 28.904c0 1.466-1.146 2.654-2.56 2.654s-2.56-1.188-2.56-2.654 1.146-2.654 2.56-2.654 2.56 1.188 2.56 2.654zM56.74 25.365c0 1.466-1.146 2.654-2.56 2.654s-2.56-1.188-2.56-2.654 1.146-2.654 2.56-2.654 2.56 1.188 2.56 2.654zM63.141 21.384c0 1.466-1.146 2.654-2.56 2.654s-2.56-1.188-2.56-2.654 1.146-2.654 2.56-2.654 2.56 1.188 2.56 2.654zM69.112 17.846c0 1.466-1.146 2.654-2.56 2.654s-2.56-1.188-2.56-2.654 1.146-2.654 2.56-2.654 2.56 1.188 2.56 2.654zM61.86 28.461c0 1.466-1.146 2.654-2.56 2.654s-2.56-1.188-2.56-2.654 1.146-2.654 2.56-2.654 2.56 1.188 2.56 2.654zM67.405 24.922c0 1.466-1.146 2.654-2.56 2.654s-2.56-1.188-2.56-2.654 1.146-2.654 2.56-2.654 2.56 1.188 2.56 2.654zM73.806 20.942c0 1.466-1.146 2.654-2.56 2.654s-2.56-1.188-2.56-2.654 1.146-2.654 2.56-2.654 2.56 1.188 2.56 2.654zM79.778 17.403c0 1.466-1.146 2.654-2.56 2.654s-2.56-1.188-2.56-2.654 1.146-2.654 2.56-2.654 2.56 1.188 2.56 2.654z"/><path d="M71.672 16.961c0 1.466-1.146 2.654-2.56 2.654s-2.56-1.188-2.56-2.654 1.146-2.654 2.56-2.654 2.56 1.188 2.56 2.654zM77.218 13.422c0 1.466-1.146 2.654-2.56 2.654s-2.56-1.188-2.56-2.654 1.146-2.654 2.56-2.654 2.56 1.188 2.56 2.654zM83.618 9.441c0 1.466-1.146 2.654-2.56 2.654s-2.56-1.188-2.56-2.654 1.146-2.654 2.56-2.654 2.56 1.188 2.56 2.654zM89.591 5.902c0 1.466-1.146 2.654-2.56 2.654s-2.56-1.188-2.56-2.654 1.146-2.654 2.56-2.654 2.56 1.188 2.56 2.654z"/></symbol><symbol id="icon-aditional-vector-hero" viewBox="0 0 104 32"><path d="M7.539 26.353c0 2.079-1.688 3.765-3.769 3.765S.001 28.432.001 26.353s1.688-3.765 3.769-3.765 3.769 1.686 3.769 3.765zM15.078 21.647c0 2.079-1.688 3.765-3.769 3.765S7.54 23.726 7.54 21.647s1.688-3.765 3.769-3.765 3.769 1.686 3.769 3.765zM24.503 16c0 2.079-1.688 3.765-3.769 3.765S16.965 18.079 16.965 16s1.688-3.765 3.769-3.765 3.769 1.686 3.769 3.765zM32.041 11.294c0 2.079-1.688 3.765-3.769 3.765s-3.769-1.686-3.769-3.765 1.688-3.765 3.769-3.765 3.769 1.686 3.769 3.765zM52.775 28.235c0 2.079-1.688 3.765-3.769 3.765s-3.769-1.686-3.769-3.765 1.688-3.765 3.769-3.765 3.769 1.686 3.769 3.765zM60.313 23.529c0 2.079-1.688 3.765-3.769 3.765s-3.769-1.686-3.769-3.765 1.688-3.765 3.769-3.765 3.769 1.686 3.769 3.765zM69.737 17.882c0 2.079-1.688 3.765-3.769 3.765s-3.769-1.686-3.769-3.765 1.688-3.765 3.769-3.765 3.769 1.686 3.769 3.765zM77.277 13.176c0 2.079-1.688 3.765-3.769 3.765s-3.769-1.686-3.769-3.765 1.688-3.765 3.769-3.765 3.769 1.686 3.769 3.765z"/><path d="M69.738 25.412c0 2.079-1.477 3.765-3.299 3.765s-3.299-1.686-3.299-3.765 1.477-3.765 3.299-3.765 3.299 1.686 3.299 3.765zM77.277 20.706c0 2.079-1.477 3.765-3.299 3.765s-3.299-1.686-3.299-3.765 1.477-3.765 3.299-3.765 3.299 1.686 3.299 3.765zM85.759 16c0 2.079-1.477 3.765-3.299 3.765S79.161 18.079 79.161 16s1.477-3.765 3.299-3.765 3.299 1.686 3.299 3.765zM94.241 11.294c0 2.079-1.477 3.765-3.299 3.765s-3.299-1.686-3.299-3.765 1.477-3.765 3.299-3.765 3.299 1.686 3.299 3.765zM103.665 3.765c0 2.079-1.477 3.765-3.299 3.765s-3.299-1.686-3.299-3.765S98.544 0 100.366 0s3.299 1.686 3.299 3.765zM83.875 7.529c0 2.079-1.477 3.765-3.299 3.765s-3.299-1.686-3.299-3.765 1.477-3.765 3.299-3.765 3.299 1.686 3.299 3.765zM35.811 28.235c0 2.079-1.688 3.765-3.769 3.765s-3.769-1.686-3.769-3.765 1.688-3.765 3.769-3.765 3.769 1.686 3.769 3.765zM43.35 23.529c0 2.079-1.688 3.765-3.769 3.765s-3.769-1.686-3.769-3.765 1.688-3.765 3.769-3.765 3.769 1.686 3.769 3.765zM52.775 17.882c0 2.079-1.688 3.765-3.769 3.765s-3.769-1.686-3.769-3.765 1.688-3.765 3.769-3.765 3.769 1.686 3.769 3.765zM60.313 13.176c0 2.079-1.688 3.765-3.769 3.765s-3.769-1.686-3.769-3.765 1.688-3.765 3.769-3.765 3.769 1.686 3.769 3.765zM20.732 27.294c0 2.079-1.688 3.765-3.769 3.765s-3.769-1.686-3.769-3.765 1.688-3.765 3.769-3.765 3.769 1.686 3.769 3.765zM28.272 22.588c0 2.079-1.688 3.765-3.769 3.765s-3.769-1.686-3.769-3.765 1.688-3.765 3.769-3.765 3.769 1.686 3.769 3.765zM37.696 16.941c0 2.079-1.688 3.765-3.769 3.765s-3.769-1.686-3.769-3.765 1.688-3.765 3.769-3.765 3.769 1.686 3.769 3.765zM45.235 12.235c0 2.079-1.688 3.765-3.769 3.765s-3.769-1.686-3.769-3.765 1.688-3.765 3.769-3.765 3.769 1.686 3.769 3.765z"/></symbol><symbol id="icon-facebook" viewBox="0 0 16 32"><path d="M14.143 15.972h-4.034v14.865H3.997V15.972H1.09v-5.224h2.907V7.367c0-2.418 1.142-6.203 6.166-6.203l4.527.019v5.071h-3.285c-.539 0-1.296.271-1.296 1.424v3.075h4.567l-.534 5.219z"/></symbol><symbol id="icon-github" viewBox="0 0 32 32"><path d="M16 0C7.212 0 0 7.212 0 16c0 7.499 5.262 14.312 12.25 16v-5.293c-.692.152-1.33.156-2.034-.052-.946-.279-1.714-.909-2.284-1.869-.364-.613-1.008-1.278-1.68-1.23l-.165-1.868c1.453-.124 2.711.886 3.457 2.14.332.558.713.884 1.203 1.029.473.14.982.072 1.574-.137.149-1.186.692-1.63 1.102-2.255v-.001c-4.167-.622-5.828-2.832-6.488-4.578-.874-2.317-.405-5.212 1.14-7.041.03-.036.084-.129.063-.194-.708-2.139.155-3.909.187-4.097.817.242.95-.243 3.551 1.337l.449.27c.188.112.129.048.317.034A13.544 13.544 0 0 1 16 7.723c1.136.015 2.273.178 3.404.484l.145.015c-.013-.002.04-.009.127-.062 3.248-1.968 3.132-1.324 4.003-1.608.032.188.883 1.987.182 4.099-.095.291 2.816 2.956 1.203 7.235-.659 1.746-2.32 3.957-6.487 4.578v.001c.534.814 1.176 1.247 1.173 2.927V32C26.738 30.312 32 23.499 32 16c0-8.788-7.212-16-16-16z"/></symbol><symbol id="icon-telegram" viewBox="0 0 44 32"><path d="m17.343 21.048-.675 8.86c.966 0 1.384-.387 1.885-.852l4.527-4.038 9.381 6.412c1.72.895 2.933.424 3.397-1.477l6.157-26.929.002-.002c.546-2.374-.92-3.302-2.596-2.72L3.227 13.235c-2.47.895-2.433 2.18-.42 2.762l9.253 2.686L33.554 6.131c1.012-.625 1.931-.279 1.175.346l-17.386 14.57z"/></symbol><symbol id="play" viewBox="0 0 32 32"><path d="M28.587 14.293 7.947 3.973a1.847 1.847 0 0 0-1.753.112 1.84 1.84 0 0 0-.86 1.532v20.631a1.84 1.84 0 0 0 .87 1.574c.268.166.574.259.889.271.315.012.627-.057.908-.2l20.587-10.32a1.839 1.839 0 0 0 0-3.288v.009z"/></symbol></symbol></defs></svg>